<svg width="60" height="60" viewBox="0 0 60 60" fill="none" xmlns="http://www.w3.org/2000/svg">
<path d="M0 30C0 17.206 0 10.8089 3.38149 6.40209C4.25204 5.26756 5.26756 4.25204 6.40209 3.38149C10.8089 0 17.206 0 30 0C42.794 0 49.1911 0 53.5979 3.38149C54.7324 4.25204 55.748 5.26756 56.6185 6.40209C60 10.8089 60 17.206 60 30C60 42.794 60 49.1911 56.6185 53.5979C55.748 54.7324 54.7324 55.748 53.5979 56.6185C49.1911 60 42.794 60 30 60C17.206 60 10.8089 60 6.40209 56.6185C5.26756 55.748 4.25204 54.7324 3.38149 53.5979C0 49.1911 0 42.794 0 30Z" fill="black"/>
<path d="M17.507 17.4547H17.504C17.3363 17.4543 17.1702 17.4856 17.0153 17.5467C16.8604 17.6078 16.7197 17.6975 16.6014 17.8106C16.4808 17.9246 16.3852 18.0602 16.3201 18.2096C16.255 18.359 16.2218 18.5192 16.2223 18.681V37.0695C16.2223 37.7439 16.8008 38.2938 17.5121 38.2955C20.5106 38.3023 25.5344 38.8973 29.0001 42.3497V23.1056C29.0001 22.877 28.9388 22.6623 28.823 22.4846C25.9785 18.1239 20.5123 17.4614 17.507 17.4547ZM43.778 37.0695V18.6809C43.778 18.3518 43.6433 18.0427 43.3988 17.8105C43.2806 17.6974 43.1399 17.6077 42.985 17.5466C42.8301 17.4855 42.6641 17.4542 42.4964 17.4545H42.4933C39.488 17.4614 34.0218 18.1239 31.1772 22.4846C31.0615 22.6623 31.0003 22.877 31.0003 23.1056V42.3496C34.466 38.8972 39.4897 38.3022 42.4883 38.2954C43.1994 38.2937 43.778 37.7437 43.778 37.0695Z" fill="white"/>
<path d="M46.712 21.6954H45.7779V37.0696C45.7779 38.7913 44.3044 40.1952 42.493 40.1995C39.9495 40.2052 35.7558 40.6787 32.7858 43.3546C37.9225 42.1573 43.3376 42.9356 46.4236 43.6051C46.6127 43.6466 46.8091 43.6469 46.9983 43.6058C47.1875 43.5648 47.3644 43.4835 47.5159 43.3681C47.6673 43.2536 47.7895 43.1079 47.8734 42.9421C47.9572 42.7762 48.0005 42.5944 48 42.4103V22.9215C48.0001 22.2455 47.4222 21.6954 46.712 21.6954ZM14.2221 37.0696V21.6954H13.288C12.5779 21.6954 12 22.2455 12 22.9215V42.4099C12 42.7849 12.1765 43.1341 12.4841 43.3678C12.6356 43.4832 12.8125 43.5645 13.0017 43.6056C13.1908 43.6466 13.3873 43.6463 13.5764 43.6048C16.6624 42.9352 22.0776 42.157 27.2141 43.3542C24.2442 40.6784 20.0505 40.2051 17.507 40.1994C15.6958 40.1952 14.2221 38.7913 14.2221 37.0696Z" fill="white"/>
</svg>
