<svg width="16" height="15" viewBox="0 0 16 15" fill="none" xmlns="http://www.w3.org/2000/svg">
<g clip-path="url(#clip0_29_460)">
<path d="M15.0956 6.52427L15.0945 6.52324L8.97574 0.404678C8.71491 0.143701 8.36815 0 7.99933 0C7.63049 0 7.28373 0.143613 7.02281 0.404561L0.907176 6.52002C0.905126 6.52207 0.903075 6.52424 0.901024 6.52632C0.365419 7.06497 0.366356 7.93895 0.903661 8.47626C1.14911 8.72186 1.47334 8.86409 1.81998 8.87897C1.83404 8.88035 1.84825 8.88103 1.86255 8.88103H2.10641V13.384C2.10641 14.275 2.8314 15 3.72266 15H6.11651C6.35915 15 6.55597 14.8033 6.55597 14.5605V11.0303C6.55597 10.6237 6.88673 10.2929 7.29334 10.2929H8.7053C9.11194 10.2929 9.44265 10.6237 9.44265 11.0303V14.5605C9.44265 14.8033 9.63937 15 9.8821 15H12.276C13.1672 15 13.8922 14.275 13.8922 13.384V8.88105H14.1184C14.4871 8.88105 14.8339 8.73744 15.0949 8.47652C15.6328 7.93831 15.633 7.06283 15.0956 6.52427Z" fill="black"/>
</g>
<defs>
<clipPath id="clip0_29_460">
<rect width="15" height="15" fill="white" transform="translate(0.5)"/>
</clipPath>
</defs>
</svg>
